<?xml version="1.0" encoding="UTF-8" standalone="no"?><svg xmlns="http://www.w3.org/2000/svg" class="fabric-Icon--Delete" viewBox="0 0 48 48.000001" height="48" width="48" version="1.1"><defs/><g transform="matrix(0.73993087,0,0,0.73993087,-37.063304,-383.49814)"><path d="m 60.44328,532.94531 0,42.49024 c 0,3.53147 2.843526,6.37304 6.375,6.37304 l 30.744141,0 c 3.531479,0 6.373049,-2.84157 6.373049,-6.37304 l 0,-42.49024 -4.000002,0 0,41.91211 c 0,1.84517 -1.484906,3.33008 -3.330078,3.33008 l -28.830078,0 c -1.845172,0 -3.332032,-1.48491 -3.332032,-3.33008 l 0,-41.91211 -4,0 z" style="stroke:none" /><path d="m 74.939453,519.64062 c -1.665761,0 -3.007812,1.3401 -3.007812,3.00586 l 0,3.70899 -15.759766,0 0,4 52.035155,0 0,-4 -15.759764,0 0,-3.70899 c 0,-1.66576 -1.340095,-3.00586 -3.00586,-3.00586 l -14.501953,0 z m 1.056641,2.62305 12.167968,0 c 0.778695,0 1.404297,0.62755 1.404297,1.40625 l 0,2.68555 -14.978515,0 0,-2.68555 c 0,-0.7787 0.627555,-1.40625 1.40625,-1.40625 z" style="stroke:none" /><g><path d="m 71.953331,539.13025 3.913779,0 0,30.55759 -3.913779,0 z" style="stroke:none" /><path d="m 88.511635,539.13025 3.913779,0 0,30.55759 -3.913779,0 z" style="stroke:none" /><path d="m 80.232483,539.13025 3.913779,0 0,30.55759 -3.913779,0 z" style="stroke:none" /></g></g></svg> 