<?xml version="1.0" encoding="UTF-8" standalone="no"?>
<!-- Created with Inkscape (http://www.inkscape.org/) -->

<svg
   xmlns:dc="http://purl.org/dc/elements/1.1/"
   xmlns:cc="http://creativecommons.org/ns#"
   xmlns:rdf="http://www.w3.org/1999/02/22-rdf-syntax-ns#"
   xmlns:svg="http://www.w3.org/2000/svg"
   xmlns="http://www.w3.org/2000/svg"
   xmlns:sodipodi="http://sodipodi.sourceforge.net/DTD/sodipodi-0.dtd"
   xmlns:inkscape="http://www.inkscape.org/namespaces/inkscape"
   width="210mm"
   height="297mm"
   viewBox="0 0 744.09448819 1052.3622047"
   id="svg2"
   version="1.1"
   inkscape:version="0.91 r13725"
   sodipodi:docname="drawing.svg">
  <defs
     id="defs4" />
  <sodipodi:namedview
     id="base"
     pagecolor="#ffffff"
     bordercolor="#666666"
     borderopacity="1.0"
     inkscape:pageopacity="0.0"
     inkscape:pageshadow="2"
     inkscape:zoom="0.35"
     inkscape:cx="-112.14286"
     inkscape:cy="520"
     inkscape:document-units="px"
     inkscape:current-layer="layer1"
     showgrid="false"
     inkscape:window-width="1536"
     inkscape:window-height="811"
     inkscape:window-x="-8"
     inkscape:window-y="851"
     inkscape:window-maximized="1" />
  <metadata
     id="metadata7">
    <rdf:RDF>
      <cc:Work
         rdf:about="">
        <dc:format>image/svg+xml</dc:format>
        <dc:type
           rdf:resource="http://purl.org/dc/dcmitype/StillImage" />
        <dc:title></dc:title>
      </cc:Work>
    </rdf:RDF>
  </metadata>
  <g
     inkscape:label="Layer 1"
     inkscape:groupmode="layer"
     id="layer1">
    <path
       sodipodi:type="star"
       style="opacity:1;fill:#ff9000;fill-opacity:1;fill-rule:nonzero;stroke:none;stroke-width:0.80000001;stroke-miterlimit:4;stroke-dasharray:none;stroke-dashoffset:0;stroke-opacity:1"
       id="path4152"
       sodipodi:sides="6"
       sodipodi:cx="318.57144"
       sodipodi:cy="258.07651"
       sodipodi:r1="147.25377"
       sodipodi:r2="127.52551"
       sodipodi:arg1="0"
       sodipodi:arg2="0.52359878"
       inkscape:flatsided="true"
       inkscape:rounded="0"
       inkscape:randomized="0"
       d="m 465.82521,258.07651 -73.62688,127.5255 -147.25377,0 -73.62689,-127.5255 73.62689,-127.52551 147.25377,0 z"
       transform="matrix(0.8660254,0.5,-0.5,0.8660254,-452.08922,142.524)" />
    <rect
       style="opacity:1;fill:#0077ff;fill-opacity:1;fill-rule:nonzero;stroke:none;stroke-width:0.80000001;stroke-miterlimit:4;stroke-dasharray:none;stroke-dashoffset:0;stroke-opacity:1"
       id="rect4171"
       width="900"
       height="578.57141"
       x="692.77466"
       y="199.53587" />
    <path
       style="opacity:1;fill:#ffffff;fill-opacity:1;fill-rule:nonzero;stroke:none;stroke-width:0.80000001;stroke-miterlimit:4;stroke-dasharray:none;stroke-dashoffset:0;stroke-opacity:1"
       d="m -308.09282,432.45417 a 92.85714,92.85714 0 0 0 -92.85743,92.85547 92.85714,92.85714 0 0 0 92.85743,92.85747 92.85714,92.85714 0 0 0 92.85546,-92.85747 92.85714,92.85714 0 0 0 -92.85546,-92.85547 z m 0,30.35547 a 62.5,62.5 0 0 1 62.5,62.5 62.5,62.5 0 0 1 -62.5,62.49997 62.5,62.5 0 0 1 -62.5,-62.49997 62.5,62.5 0 0 1 62.5,-62.5 z"
       id="path4154-1"
       inkscape:connector-curvature="0" />
    <g
       id="g4254"
       transform="translate(-369.24951,302.58936)">
      <rect
         y="105.10665"
         x="45.070847"
         height="238.08632"
         width="30.357141"
         id="rect4192"
         style="opacity:1;fill:#000080;fill-opacity:1;fill-rule:nonzero;stroke:none;stroke-width:0.80000001;stroke-miterlimit:4;stroke-dasharray:none;stroke-dashoffset:0;stroke-opacity:1" />
      <rect
         transform="matrix(0.5,0.8660254,-0.8660254,0.5,0,0)"
         y="-59.145779"
         x="209.06557"
         height="238.08632"
         width="30.357141"
         id="rect4192-1"
         style="opacity:1;fill:#000080;fill-opacity:1;fill-rule:nonzero;stroke:none;stroke-width:0.80000001;stroke-miterlimit:4;stroke-dasharray:none;stroke-dashoffset:0;stroke-opacity:1" />
      <rect
         transform="matrix(-0.5,0.8660254,-0.8660254,-0.5,0,0)"
         y="-283.29559"
         x="148.81615"
         height="238.08632"
         width="30.357141"
         id="rect4192-8"
         style="opacity:1;fill:#000080;fill-opacity:1;fill-rule:nonzero;stroke:none;stroke-width:0.80000001;stroke-miterlimit:4;stroke-dasharray:none;stroke-dashoffset:0;stroke-opacity:1" />
    </g>
    <path
       sodipodi:type="star"
       style="opacity:1;fill:#ff9000;fill-opacity:1;fill-rule:nonzero;stroke:none;stroke-width:0.80000001;stroke-miterlimit:4;stroke-dasharray:none;stroke-dashoffset:0;stroke-opacity:1"
       id="path4152-5"
       sodipodi:sides="6"
       sodipodi:cx="318.57144"
       sodipodi:cy="258.07651"
       sodipodi:r1="147.25377"
       sodipodi:r2="127.52551"
       sodipodi:arg1="0"
       sodipodi:arg2="0.52359878"
       inkscape:flatsided="true"
       inkscape:rounded="0"
       inkscape:randomized="0"
       d="m 465.82521,258.07651 -73.62688,127.5255 -147.25377,0 -73.62689,-127.5255 73.62689,-127.52551 147.25377,0 z"
       transform="matrix(0.8660254,0.5,-0.5,0.8660254,-68.510208,66.016733)" />
    <path
       style="opacity:1;fill:#ffffff;fill-opacity:1;fill-rule:nonzero;stroke:none;stroke-width:0.80000001;stroke-miterlimit:4;stroke-dasharray:none;stroke-dashoffset:0;stroke-opacity:1"
       d="m 244.31986,1119.4362 0,27.1046 a 54.598194,54.598194 0 0 1 25.8761,14.9906 l 23.4857,-13.5608 a 81.117315,81.117315 0 0 0 -49.3618,-28.5344 z m -26.5194,0.068 a 81.117315,81.117315 0 0 0 -49.3107,28.4968 l 23.4175,13.5199 a 54.598194,54.598194 0 0 1 25.8932,-14.9957 l 0,-27.021 z m 89.0991,51.4554 -23.4175,13.5216 a 54.598194,54.598194 0 0 1 2.1771,14.953 54.598194,54.598194 0 0 1 -2.1549,14.9702 l 23.3714,13.4943 a 81.117315,81.117315 0 0 0 5.3012,-28.4645 81.117315,81.117315 0 0 0 -5.2773,-28.4746 z m -151.6567,0.015 a 81.117315,81.117315 0 0 0 -5.2994,28.4593 81.117315,81.117315 0 0 0 5.2772,28.4763 l 23.4209,-13.5215 a 54.598194,54.598194 0 0 1 -2.1788,-14.9548 54.598194,54.598194 0 0 1 2.155,-14.965 l -23.3749,-13.4943 z m 36.6815,66.3658 -23.4875,13.5608 a 81.117315,81.117315 0 0 0 49.3636,28.5344 l 0,-27.1063 a 54.598194,54.598194 0 0 1 -25.8761,-14.9889 z m 78.2886,0.01 a 54.598194,54.598194 0 0 1 -25.8931,14.994 l 0,27.0227 a 81.117315,81.117315 0 0 0 49.3107,-28.4968 l -23.4176,-13.5199 z"
       id="path4154-1-0"
       inkscape:connector-curvature="0" />
    <path
       style="opacity:1;fill:#ffffff;fill-opacity:1;fill-rule:nonzero;stroke:none;stroke-width:0.80000001;stroke-miterlimit:4;stroke-dasharray:none;stroke-dashoffset:0;stroke-opacity:1"
       d="M 65.148862,351.80676 A 98.002124,98.002124 0 0 0 0.97926165,388.90474 L 29.062962,405.11926 a 65.96297,65.96297 0 0 1 36.0859,-20.87522 l 0,-32.43728 z m 26.3852,0 0,32.36926 a 65.96297,65.96297 0 0 1 36.110598,20.92881 l 28.0363,-16.18566 A 98.002124,98.002124 0 0 0 91.534062,351.80676 Z m 77.421998,59.91292 -28.1188,16.23515 a 65.96297,65.96297 0 0 1 3.4692,20.8484 65.96297,65.96297 0 0 1 -3.4671,20.85049 l 28.0548,16.19598 a 98.002124,98.002124 0 0 0 7.4497,-37.04647 98.002124,98.002124 0 0 0 -7.3878,-37.08355 z m -181.165268,0.0371 a 98.002124,98.002124 0 0 0 -7.44968,37.04646 98.002124,98.002124 0 0 0 7.38785,37.08356 l 28.1208,-16.23719 a 65.96297,65.96297 0 0 1 -3.4692,-20.84637 65.96297,65.96297 0 0 1 3.4651,-20.85048 l -28.05487,-16.19598 z m 139.831168,80.73044 a 65.96297,65.96297 0 0 1 -36.087898,20.87315 l 0,32.43936 A 98.002124,98.002124 0 0 0 155.70776,508.7038 l -28.0858,-16.21658 z m -98.579598,0.0124 -28.0384004,16.18774 a 98.002124,98.002124 0 0 0 64.1449004,37.1124 l 0,-32.37132 a 65.96297,65.96297 0 0 1 -36.1065,-20.92882 z"
       id="path4154-1-6"
       inkscape:connector-curvature="0" />
    <path
       inkscape:connector-curvature="0"
       style="opacity:1;fill:#000080;fill-opacity:1;fill-rule:nonzero;stroke:none;stroke-width:0.80000001;stroke-miterlimit:4;stroke-dasharray:none;stroke-dashoffset:0;stroke-opacity:1"
       d="m -908.69738,662.14242 0,92.75196 -80.32617,-46.37696 -15.17965,26.29102 80.32613,46.37695 -80.32613,46.37696 15.17965,26.28906 80.32617,-46.375 0,92.75195 30.35742,0 0,-92.75195 80.32617,46.375 15.17969,-26.28906 -80.32617,-46.37696 80.32617,-46.37695 -15.17969,-26.29102 -80.32617,46.37696 0,-92.75196 -30.35742,0 z"
       id="rect4192-9" />
    <path
       sodipodi:type="star"
       style="opacity:1;fill:#ff9000;fill-opacity:1;fill-rule:nonzero;stroke:none;stroke-width:0.80000001;stroke-miterlimit:4;stroke-dasharray:none;stroke-dashoffset:0;stroke-opacity:1"
       id="path4152-5-5"
       sodipodi:sides="6"
       sodipodi:cx="318.57144"
       sodipodi:cy="258.07651"
       sodipodi:r1="147.25377"
       sodipodi:r2="127.52551"
       sodipodi:arg1="0"
       sodipodi:arg2="0.52359878"
       inkscape:flatsided="true"
       inkscape:rounded="0"
       inkscape:randomized="0"
       d="m 465.82521,258.07651 -73.62688,127.5255 -147.25377,0 -73.62689,-127.5255 73.62689,-127.52551 147.25377,0 z"
       transform="matrix(0.8660254,0.5,-0.5,0.8660254,209.18736,78.180033)" />
    <g
       id="g4458"
       transform="matrix(0.80483091,0,0,0.80483091,-111.91168,-219.29211)">
      <circle
         r="92.85714"
         cy="845.21936"
         cx="581.42859"
         id="path4154"
         style="opacity:1;fill:#ffffff;fill-opacity:1;fill-rule:nonzero;stroke:none;stroke-width:0.80000001;stroke-miterlimit:4;stroke-dasharray:none;stroke-dashoffset:0;stroke-opacity:1" />
      <circle
         r="62.5"
         cy="845.21936"
         cx="581.42859"
         id="path4154-9"
         style="opacity:1;fill:#ff9000;fill-opacity:1;fill-rule:nonzero;stroke:none;stroke-width:0.80000001;stroke-miterlimit:4;stroke-dasharray:none;stroke-dashoffset:0;stroke-opacity:1" />
      <path
         id="rect4192-9-3"
         d="m 566.24988,726.17639 0,92.75196 -80.32617,-46.37696 -15.17969,26.29102 80.32617,46.37695 -80.32617,46.37696 15.17969,26.28906 80.32617,-46.375 0,92.75195 30.35742,0 0,-92.75195 80.32617,46.375 15.17969,-26.28906 -80.32617,-46.37696 80.32617,-46.37695 -15.17969,-26.29102 -80.32617,46.37696 0,-92.75196 -30.35742,0 z"
         style="opacity:1;fill:#ffffff;fill-opacity:1;fill-rule:nonzero;stroke:none;stroke-width:0.80000001;stroke-miterlimit:4;stroke-dasharray:none;stroke-dashoffset:0;stroke-opacity:1"
         inkscape:connector-curvature="0" />
    </g>
    <path
       sodipodi:type="star"
       style="opacity:1;fill:#ff9000;fill-opacity:1;fill-rule:nonzero;stroke:none;stroke-width:0.80000001;stroke-miterlimit:4;stroke-dasharray:none;stroke-dashoffset:0;stroke-opacity:1"
       id="path4152-5-4"
       sodipodi:sides="6"
       sodipodi:cx="318.57144"
       sodipodi:cy="258.07651"
       sodipodi:r1="147.25377"
       sodipodi:r2="127.52551"
       sodipodi:arg1="0"
       sodipodi:arg2="0.52359878"
       inkscape:flatsided="true"
       inkscape:rounded="0"
       inkscape:randomized="0"
       d="m 465.82521,258.07651 -73.62688,127.5255 -147.25377,0 -73.62689,-127.5255 73.62689,-127.52551 147.25377,0 z"
       transform="matrix(0.8660254,0.5,-0.5,0.8660254,-84.874578,-290.24396)" />
    <path
       style="opacity:1;fill:#ffffff;fill-opacity:1;fill-rule:nonzero;stroke:none;stroke-width:0.80000001;stroke-miterlimit:4;stroke-dasharray:none;stroke-dashoffset:0;stroke-opacity:1"
       d="M 51.284762,13.92703 A 79.430556,79.430556 0 0 0 -0.72463835,43.99488 L 22.037162,57.136723 a 53.462876,53.462876 0 0 1 29.2476,-16.919333 l 0,-26.29036 z m 21.3851,0 0,26.23523 A 53.462876,53.462876 0 0 1 101.93746,57.125033 L 124.66086,44.00658 A 79.430556,79.430556 0 0 0 72.669862,13.92703 Z m 62.750398,48.559323 -22.7902,13.15856 a 53.462876,53.462876 0 0 1 2.8118,16.8976 53.462876,53.462876 0 0 1 -2.8101,16.899277 l 22.7384,13.12682 a 79.430556,79.430556 0 0 0 6.0379,-30.026097 79.430556,79.430556 0 0 0 -5.9878,-30.05616 z m -146.834138,0.0301 a 79.430556,79.430556 0 0 0 -6.03795,30.02609 79.430556,79.430556 0 0 0 5.98784,30.056167 l 22.79185,-13.16022 A 53.462876,53.462876 0 0 1 8.5160616,92.542543 53.462876,53.462876 0 0 1 11.324562,75.643273 l -22.73844,-13.12682 z M 101.91906,127.94834 a 53.462876,53.462876 0 0 1 -29.249198,16.91765 l 0,26.29205 a 79.430556,79.430556 0 0 0 52.012698,-30.06619 l -22.7635,-13.14351 z m -79.898598,0.0101 -22.72500035,13.12013 A 79.430556,79.430556 0 0 0 51.284762,171.15811 l 0,-26.2369 a 53.462876,53.462876 0 0 1 -29.2643,-16.96277 z"
       id="path4154-1-6-7"
       inkscape:connector-curvature="0" />
    <path
       style="opacity:1;fill:#ffffff;fill-opacity:1;fill-rule:nonzero;stroke:none;stroke-width:0.80000001;stroke-miterlimit:4;stroke-dasharray:none;stroke-dashoffset:0;stroke-opacity:1"
       d="m -42.969248,950.9681 a 92.85714,92.85714 0 0 0 -92.857432,92.8555 92.85714,92.85714 0 0 0 92.857432,92.8574 92.85714,92.85714 0 0 0 92.85551,-92.8574 92.85714,92.85714 0 0 0 -92.85551,-92.8555 z m 0,30.3555 a 62.5,62.5 0 0 1 62.50001,62.5 62.5,62.5 0 0 1 -62.50001,62.4999 62.5,62.5 0 0 1 -62.500002,-62.4999 62.5,62.5 0 0 1 62.500002,-62.5 z"
       id="path4154-1-04-9"
       inkscape:connector-curvature="0" />
    <path
       sodipodi:type="star"
       style="opacity:1;fill:#ff9000;fill-opacity:1;fill-rule:nonzero;stroke:none;stroke-width:0.80000001;stroke-miterlimit:4;stroke-dasharray:none;stroke-dashoffset:0;stroke-opacity:1"
       id="path4152-5-2"
       sodipodi:sides="6"
       sodipodi:cx="318.57144"
       sodipodi:cy="258.07651"
       sodipodi:r1="147.25377"
       sodipodi:r2="127.52551"
       sodipodi:arg1="0"
       sodipodi:arg2="0.52359878"
       inkscape:flatsided="true"
       inkscape:rounded="0"
       inkscape:randomized="0"
       d="m 465.82521,258.07651 -73.62688,127.5255 -147.25377,0 -73.62689,-127.5255 73.62689,-127.52551 147.25377,0 z"
       transform="matrix(0.8660254,0.5,-0.5,0.8660254,952.65956,250.91611)" />
    <path
       style="opacity:1;fill:#ffffff;fill-opacity:1;fill-rule:nonzero;stroke:none;stroke-width:0.80000001;stroke-miterlimit:4;stroke-dasharray:none;stroke-dashoffset:0;stroke-opacity:1"
       d="m 1091.2231,549.70265 a 84.415182,84.415182 0 0 0 -60.2252,34.872 l 25.9942,15.00703 a 54.569684,54.569684 0 0 1 34.231,-19.77264 l 0,-30.10639 z m 16.5767,0.08 0,30.0549 a 54.569684,54.569684 0 0 1 34.2647,19.72647 l 25.9908,-15.00703 a 84.415182,84.415182 0 0 0 -60.2555,-34.77434 z m 68.5402,49.13506 -25.9729,14.99637 a 54.569684,54.569684 0 0 1 3.7145,19.78862 54.569684,54.569684 0 0 1 -3.7643,19.76198 l 25.9995,15.01237 a 84.415182,84.415182 0 0 0 7.6101,-34.77435 84.415182,84.415182 0 0 0 -7.5869,-34.78499 z m -153.634,0.0142 a 84.415182,84.415182 0 0 0 -7.6082,34.77078 84.415182,84.415182 0 0 0 7.5887,34.78677 l 25.9729,-14.99639 a 54.569684,54.569684 0 0 1 -3.7163,-19.79038 54.569684,54.569684 0 0 1 3.7642,-19.76021 l -26.0013,-15.01057 z m 119.3284,68.89349 a 54.569684,54.569684 0 0 1 -34.2346,19.77263 l 0,30.10461 a 84.415182,84.415182 0 0 0 60.2288,-34.87022 l -25.9942,-15.00702 z m -85.076,0.0177 -25.9907,15.00525 a 84.415182,84.415182 0 0 0 60.2554,34.77613 l 0,-30.05491 a 54.569684,54.569684 0 0 1 -34.2647,-19.72647 z"
       id="path4154-1-04"
       inkscape:connector-curvature="0" />
    <g
       id="g4729"
       transform="translate(-406.62515,587.45238)">
      <path
         id="path4152-5-2-4"
         d="m 1395,-347.03516 -127.5254,73.62696 0,147.2539 127.5254,73.626956 127.5254,-73.626956 0,-147.2539 L 1395,-347.03516 Z m 0,16.9375 112.8574,65.15821 0,130.3164 -112.8574,65.158206 -112.8574,-65.158206 0,-130.3164 L 1395,-330.09766 Z"
         style="opacity:1;fill:#ff9000;fill-opacity:1;fill-rule:nonzero;stroke:none;stroke-width:0.80000001;stroke-miterlimit:4;stroke-dasharray:none;stroke-dashoffset:0;stroke-opacity:1"
         inkscape:connector-curvature="0" />
      <path
         inkscape:connector-curvature="0"
         id="path4154-1-04-1"
         d="m 1386.7108,-283.78065 a 84.415182,84.415182 0 0 0 -60.2252,34.872 l 25.9942,15.00704 a 54.569684,54.569684 0 0 1 34.231,-19.77265 l 0,-30.10639 z m 16.5767,0.08 0,30.0549 a 54.569684,54.569684 0 0 1 34.2647,19.72648 l 25.9908,-15.00704 a 84.415182,84.415182 0 0 0 -60.2555,-34.77434 z m 68.5402,49.13507 -25.9729,14.99637 a 54.569684,54.569684 0 0 1 3.7145,19.78862 54.569684,54.569684 0 0 1 -3.7643,19.76198 l 25.9995,15.01237 a 84.415182,84.415182 0 0 0 7.6101,-34.77435 84.415182,84.415182 0 0 0 -7.5869,-34.78499 z m -153.634,0.0142 a 84.415182,84.415182 0 0 0 -7.6083,34.77078 84.415182,84.415182 0 0 0 7.5888,34.78677 l 25.9729,-14.99639 a 54.569684,54.569684 0 0 1 -3.7163,-19.79038 54.569684,54.569684 0 0 1 3.7642,-19.76021 l -26.0013,-15.01057 z m 119.3284,68.89349 a 54.569684,54.569684 0 0 1 -34.2346,19.77263 l 0,30.10461 a 84.415182,84.415182 0 0 0 60.2288,-34.87022 l -25.9942,-15.00702 z m -85.0761,0.0177 -25.9906,15.00525 a 84.415182,84.415182 0 0 0 60.2554,34.77613 l 0,-30.05491 a 54.569684,54.569684 0 0 1 -34.2648,-19.72647 z"
         style="opacity:1;fill:#ff9000;fill-opacity:1;fill-rule:nonzero;stroke:none;stroke-width:0.80000001;stroke-miterlimit:4;stroke-dasharray:none;stroke-dashoffset:0;stroke-opacity:1" />
    </g>
    <g
       id="g4709"
       transform="translate(825.76096,-156.0199)">
      <path
         inkscape:connector-curvature="0"
         id="path4152-5-2-4-3"
         d="m 485.88337,456.60056 -127.5254,73.62696 0,147.2539 127.5254,73.62696 127.5254,-73.62696 0,-147.2539 -127.5254,-73.62696 z m 0,24.75391 106.0879,61.25 0,122.5 -106.0879,61.25 -106.0879,-61.25 0,-122.5 106.0879,-61.25 z"
         style="opacity:1;fill:#ffffff;fill-opacity:1;fill-rule:nonzero;stroke:none;stroke-width:0.80000001;stroke-miterlimit:4;stroke-dasharray:none;stroke-dashoffset:0;stroke-opacity:1" />
      <path
         inkscape:connector-curvature="0"
         id="path4154-1-04-1-3"
         d="m 477.59417,519.85447 a 84.415182,84.415182 0 0 0 -60.2252,34.872 l 25.9942,15.00704 a 54.569684,54.569684 0 0 1 34.231,-19.77265 l 0,-30.10639 z m 16.5767,0.08 0,30.0549 a 54.569684,54.569684 0 0 1 34.2647,19.72648 l 25.9908,-15.00704 a 84.415182,84.415182 0 0 0 -60.2555,-34.77434 z m 68.5402,49.13507 -25.9729,14.99637 a 54.569684,54.569684 0 0 1 3.7145,19.78862 54.569684,54.569684 0 0 1 -3.7643,19.76198 l 25.9995,15.01237 a 84.415182,84.415182 0 0 0 7.6101,-34.77435 84.415182,84.415182 0 0 0 -7.5869,-34.78499 z m -153.634,0.0142 a 84.415182,84.415182 0 0 0 -7.6083,34.77078 84.415182,84.415182 0 0 0 7.5888,34.78677 l 25.9729,-14.99639 a 54.569684,54.569684 0 0 1 -3.7163,-19.79038 54.569684,54.569684 0 0 1 3.7642,-19.76021 l -26.0013,-15.01057 z m 119.3284,68.89349 a 54.569684,54.569684 0 0 1 -34.2346,19.77263 l 0,30.10461 a 84.415182,84.415182 0 0 0 60.2288,-34.87022 l -25.9942,-15.00702 z m -85.0761,0.0177 -25.9906,15.00525 a 84.415182,84.415182 0 0 0 60.2554,34.77613 l 0,-30.05491 a 54.569684,54.569684 0 0 1 -34.2648,-19.72647 z"
         style="opacity:1;fill:#ffffff;fill-opacity:1;fill-rule:nonzero;stroke:none;stroke-width:0.80000001;stroke-miterlimit:4;stroke-dasharray:none;stroke-dashoffset:0;stroke-opacity:1" />
    </g>
  </g>
</svg>
