<?xml version="1.0" encoding="UTF-8" standalone="no"?>
<svg
   xmlns="http://www.w3.org/2000/svg"
   version="1.1"
   viewBox="0 0 48 48.000001"
   height="48"
   width="48">
  <defs/>
  <g
     transform="translate(0,-1004.3622)"
     id="layer1">
    <g
       style="fill:#ffffff;stroke:none"
       id="g4805"
       transform="matrix(0.64148279,0,0,0.64148279,26.413744,684.62217)">
      <path
         style="opacity:1;fill:#ffffff;fill-opacity:1;fill-rule:nonzero;stroke:none;stroke-width:1.08866727;stroke-miterlimit:4;stroke-dasharray:none;stroke-dashoffset:0;stroke-opacity:1"
         d="m -9.203125,539.98633 -30.414063,30.41406 2.865235,2.86523 30.398437,-30.39843 a 25,25 0 0 1 -2.849609,-2.88086 z"
         id="rect4151-2" />
      <path
         style="opacity:1;fill:#ffffff;fill-opacity:1;fill-rule:nonzero;stroke:none;stroke-width:0.80000001;stroke-miterlimit:4;stroke-dasharray:none;stroke-dashoffset:0;stroke-opacity:1"
         d="m 7.0916734,500.25079 a 25,25 0 0 0 -25.0000004,25 25,25 0 0 0 25.0000004,25 25,25 0 0 0 24.9999996,-25 25,25 0 0 0 -24.9999996,-25 z m 0,4 a 21,21 0 0 1 20.9999996,21 21,21 0 0 1 -20.9999996,21 21,21 0 0 1 -21.0000004,-21 21,21 0 0 1 21.0000004,-21 z"
         id="path4771" />
    </g>
  </g>
</svg>
